<?xml version="1.0" encoding="UTF-8"?>
<svg id="Add_your_design" data-name="Add your design" xmlns="http://www.w3.org/2000/svg" xmlns:xlink="http://www.w3.org/1999/xlink" viewBox="0 0 752.62 470.67">
  <defs>
    <style>
      .cls-1 {
        filter: url(#drop-shadow-2);
      }

      .cls-2 {
        fill: #fff;
      }

      .cls-3 {
        fill: #ee448e;
      }

      .cls-4 {
        fill: none;
      }

      .cls-5 {
        clip-path: url(#clippath-1);
      }

      .cls-6 {
        filter: url(#drop-shadow-1);
      }

      .cls-7 {
        clip-path: url(#clippath-2);
      }

      .cls-8 {
        fill: #f47730;
      }
    </style>
    <clipPath id="clippath-1">
      <rect class="cls-4" x="16.66" y="-24.5" width="131.04" height="410.85"/>
    </clipPath>
    <filter id="drop-shadow-1" x="168.1" y="219.62" width="507.49" height="130.45" filterUnits="userSpaceOnUse">
      <feOffset dx="7.64" dy="0"/>
      <feGaussianBlur result="blur" stdDeviation="0"/>
      <feFlood flood-color="#000" flood-opacity="1"/>
      <feComposite in2="blur" operator="in"/>
      <feComposite in="SourceGraphic"/>
    </filter>
    <filter id="drop-shadow-2" x="78.71" y="57.51" width="597.43" height="125.72" filterUnits="userSpaceOnUse">
      <feOffset dx="7.64" dy="0"/>
      <feGaussianBlur result="blur-2" stdDeviation="0"/>
      <feFlood flood-color="#000" flood-opacity="1"/>
      <feComposite in2="blur-2" operator="in"/>
      <feComposite in="SourceGraphic"/>
    </filter>
    <clipPath id="clippath-2">
      <rect class="cls-4" x="604.4" y="-25.33" width="131.04" height="410.85"/>
    </clipPath>
  </defs>
  <rect x="16.66" y="409.88" width="720.73" height="48.68" rx="2.83" ry="2.83"/>
  <g>
    <path class="cls-2" d="M33.66,446.59v-25.14h8.84c1.77,0,3.24.28,4.4.84,1.16.56,2.03,1.33,2.6,2.3s.86,2.05.86,3.25c0,1.29-.28,2.37-.84,3.23-.56.86-1.29,1.52-2.19,1.98-.9.46-1.85.73-2.86.83l.5-.36c1.08.02,2.07.31,2.98.86.91.55,1.63,1.29,2.17,2.23.54.93.81,1.98.81,3.12,0,1.27-.31,2.42-.93,3.47-.62,1.04-1.54,1.87-2.75,2.48-1.21.61-2.7.92-4.47.92h-9.12ZM36.68,432.43h5.6c1.63,0,2.87-.38,3.72-1.15s1.28-1.81,1.28-3.12-.43-2.29-1.28-3.05c-.85-.77-2.13-1.15-3.83-1.15h-5.5v8.48ZM36.68,444.07h5.78c1.7,0,3.02-.4,3.97-1.2.95-.8,1.42-1.92,1.42-3.36s-.48-2.54-1.45-3.39c-.97-.85-2.31-1.28-4.01-1.28h-5.71v9.23Z"/>
    <path class="cls-2" d="M61.72,447.02c-1.39,0-2.6-.28-3.65-.83-1.04-.55-1.84-1.4-2.41-2.55-.56-1.15-.84-2.59-.84-4.31v-10.85h3.02v10.52c0,1.8.4,3.15,1.19,4.06.79.91,1.9,1.37,3.34,1.37,1.01,0,1.92-.25,2.73-.74.81-.49,1.45-1.2,1.92-2.12.47-.92.7-2.07.7-3.43v-9.66h3.02v18.1h-2.73l-.18-3.16c-.55,1.13-1.36,2.01-2.44,2.64-1.08.63-2.3.95-3.66.95Z"/>
    <path class="cls-2" d="M77.52,424.64c-.6,0-1.1-.2-1.49-.59-.4-.39-.59-.89-.59-1.49s.2-1.08.59-1.46c.4-.37.89-.56,1.49-.56s1.06.19,1.47.56c.41.37.61.86.61,1.46s-.2,1.1-.61,1.49c-.41.4-.9.59-1.47.59ZM76.01,446.59v-18.1h3.02v18.1h-3.02Z"/>
    <path class="cls-2" d="M84.35,446.59v-25.86h3.02v25.86h-3.02Z"/>
    <path class="cls-2" d="M100.37,447.02c-1.75,0-3.29-.41-4.62-1.24s-2.35-1.96-3.07-3.39-1.08-3.07-1.08-4.89.36-3.44,1.08-4.87c.72-1.42,1.74-2.54,3.07-3.36,1.33-.81,2.88-1.22,4.65-1.22,1.46,0,2.75.3,3.86.9,1.11.6,1.98,1.44,2.6,2.51v-10.74h3.02v25.86h-2.73l-.29-2.98c-.38.6-.87,1.16-1.47,1.67-.6.52-1.31.93-2.14,1.26s-1.79.48-2.89.48ZM100.69,444.4c1.2,0,2.25-.29,3.16-.86.91-.58,1.62-1.37,2.14-2.39.51-1.02.77-2.22.77-3.61s-.26-2.56-.77-3.59c-.52-1.03-1.23-1.83-2.14-2.41-.91-.57-1.96-.86-3.16-.86s-2.19.29-3.11.86c-.92.58-1.63,1.38-2.14,2.41s-.75,2.23-.75,3.59.25,2.59.75,3.61,1.21,1.81,2.14,2.39c.92.57,1.96.86,3.11.86Z"/>
    <path class="cls-2" d="M123,446.59l9.27-25.14h3.2l9.23,25.14h-3.2l-7.65-21.37-7.69,21.37h-3.16ZM127.23,440.12l.86-2.44h11.39l.86,2.44h-13.11Z"/>
    <path class="cls-2" d="M148.28,454.49v-26.01h2.73l.25,2.95c.38-.57.87-1.12,1.47-1.63.6-.52,1.32-.93,2.16-1.26.84-.32,1.81-.48,2.91-.48,1.75,0,3.27.42,4.58,1.26,1.31.84,2.32,1.97,3.05,3.39.73,1.42,1.1,3.05,1.1,4.87s-.37,3.44-1.1,4.87c-.73,1.42-1.75,2.54-3.07,3.36-1.32.81-2.85,1.22-4.6,1.22-1.46,0-2.75-.3-3.88-.9-1.13-.6-1.99-1.44-2.59-2.51v10.88h-3.02ZM157.41,444.4c1.17,0,2.22-.29,3.14-.86.92-.58,1.64-1.37,2.16-2.39.51-1.02.77-2.22.77-3.61s-.26-2.56-.77-3.59c-.52-1.03-1.23-1.83-2.16-2.41-.92-.57-1.97-.86-3.14-.86s-2.25.29-3.16.86c-.91.58-1.62,1.38-2.12,2.41s-.75,2.23-.75,3.59.25,2.59.75,3.61,1.21,1.81,2.12,2.39c.91.57,1.96.86,3.16.86Z"/>
    <path class="cls-2" d="M170.8,454.49v-26.01h2.73l.25,2.95c.38-.57.87-1.12,1.47-1.63.6-.52,1.32-.93,2.16-1.26.84-.32,1.81-.48,2.91-.48,1.75,0,3.27.42,4.58,1.26,1.31.84,2.32,1.97,3.05,3.39.73,1.42,1.1,3.05,1.1,4.87s-.37,3.44-1.1,4.87c-.73,1.42-1.75,2.54-3.07,3.36-1.32.81-2.85,1.22-4.6,1.22-1.46,0-2.75-.3-3.88-.9-1.13-.6-1.99-1.44-2.59-2.51v10.88h-3.02ZM179.93,444.4c1.17,0,2.22-.29,3.14-.86.92-.58,1.64-1.37,2.16-2.39.51-1.02.77-2.22.77-3.61s-.26-2.56-.77-3.59c-.52-1.03-1.23-1.83-2.16-2.41-.92-.57-1.97-.86-3.14-.86s-2.25.29-3.16.86c-.91.58-1.62,1.38-2.12,2.41s-.75,2.23-.75,3.59.25,2.59.75,3.61,1.21,1.81,2.12,2.39c.91.57,1.96.86,3.16.86Z"/>
    <path class="cls-2" d="M200.15,447.02c-1.49,0-2.79-.25-3.92-.75-1.13-.5-2.02-1.2-2.68-2.1-.66-.9-1.06-1.96-1.2-3.18h3.09c.12.62.37,1.2.75,1.72.38.53.9.95,1.56,1.27.66.32,1.47.49,2.42.49.84,0,1.53-.13,2.08-.38.55-.25.96-.59,1.24-1.02.27-.43.41-.9.41-1.4,0-.74-.17-1.3-.52-1.69-.35-.38-.86-.69-1.53-.92-.67-.23-1.49-.42-2.44-.59-.79-.14-1.57-.33-2.33-.57-.77-.24-1.45-.56-2.05-.95-.6-.4-1.07-.88-1.42-1.46-.35-.57-.52-1.28-.52-2.12,0-1.03.27-1.95.81-2.75.54-.8,1.3-1.43,2.28-1.89.98-.45,2.13-.68,3.45-.68,1.94,0,3.51.47,4.71,1.4s1.9,2.29,2.12,4.06h-2.98c-.12-.91-.51-1.62-1.17-2.14-.66-.51-1.56-.77-2.71-.77s-1.98.23-2.57.68c-.59.46-.88,1.05-.88,1.8,0,.48.16.9.48,1.28s.81.69,1.45.95c.65.26,1.42.48,2.33.65,1.2.21,2.29.5,3.27.86.98.36,1.78.89,2.39,1.6.61.71.92,1.71.92,3,0,1.13-.28,2.11-.84,2.95-.56.84-1.36,1.49-2.39,1.96s-2.24.7-3.63.7Z"/>
    <path class="cls-2" d="M212.43,446.77c-.6,0-1.1-.2-1.49-.59-.4-.4-.59-.88-.59-1.46s.2-1.06.59-1.45c.4-.4.89-.59,1.49-.59s1.09.2,1.47.59c.38.39.57.88.57,1.45s-.19,1.06-.57,1.46c-.38.4-.87.59-1.47.59Z"/>
    <path class="cls-2" d="M228.2,446.59v-25.14h8.84c1.77,0,3.24.28,4.4.84,1.16.56,2.03,1.33,2.6,2.3s.86,2.05.86,3.25c0,1.29-.28,2.37-.84,3.23-.56.86-1.29,1.52-2.19,1.98-.9.46-1.85.73-2.86.83l.5-.36c1.08.02,2.07.31,2.98.86.91.55,1.63,1.29,2.17,2.23.54.93.81,1.98.81,3.12,0,1.27-.31,2.42-.93,3.47-.62,1.04-1.54,1.87-2.75,2.48-1.21.61-2.7.92-4.47.92h-9.12ZM231.22,432.43h5.6c1.63,0,2.87-.38,3.72-1.15s1.28-1.81,1.28-3.12-.43-2.29-1.28-3.05c-.85-.77-2.13-1.15-3.83-1.15h-5.5v8.48ZM231.22,444.07h5.78c1.7,0,3.02-.4,3.97-1.2.95-.8,1.42-1.92,1.42-3.36s-.48-2.54-1.45-3.39c-.97-.85-2.31-1.28-4.01-1.28h-5.71v9.23Z"/>
    <path class="cls-2" d="M249.68,446.59v-18.1h2.73l.22,3.45c.41-.81.93-1.51,1.56-2.08.63-.58,1.4-1.02,2.3-1.33s1.92-.47,3.07-.47v3.16h-1.11c-.77,0-1.5.1-2.19.31-.69.2-1.31.53-1.85.99-.54.46-.96,1.07-1.26,1.85s-.45,1.74-.45,2.89v9.34h-3.02Z"/>
    <path class="cls-2" d="M270.23,447.02c-1.68,0-3.17-.39-4.49-1.18-1.32-.79-2.35-1.9-3.09-3.32-.74-1.42-1.11-3.08-1.11-4.97s.36-3.58,1.1-4.99c.73-1.41,1.76-2.51,3.09-3.3,1.33-.79,2.86-1.18,4.58-1.18s3.28.39,4.53,1.18c1.25.79,2.2,1.83,2.86,3.11.66,1.28.99,2.69.99,4.22v.75c0,.26-.01.56-.04.9h-14.83v-2.33h11.89c-.07-1.65-.62-2.95-1.63-3.88-1.02-.93-2.29-1.4-3.83-1.4-1.01,0-1.95.23-2.84.7-.89.47-1.59,1.15-2.12,2.05-.53.9-.79,2.02-.79,3.36v1.01c0,1.49.27,2.73.81,3.74s1.24,1.76,2.12,2.26c.87.5,1.81.75,2.82.75,1.27,0,2.32-.28,3.14-.84s1.43-1.33,1.81-2.32h2.98c-.31,1.1-.83,2.08-1.54,2.93-.72.85-1.61,1.53-2.68,2.03-1.07.5-2.31.75-3.72.75Z"/>
    <path class="cls-2" d="M288.58,447.02c-1.46,0-2.68-.26-3.66-.77s-1.71-1.2-2.19-2.05c-.48-.85-.72-1.78-.72-2.78,0-1.22.32-2.26.95-3.11.63-.85,1.53-1.5,2.69-1.94s2.53-.67,4.11-.67h4.78c0-1.12-.17-2.07-.52-2.82-.35-.75-.85-1.32-1.51-1.71-.66-.38-1.48-.58-2.46-.58-1.15,0-2.14.29-2.98.86-.84.57-1.35,1.42-1.54,2.55h-3.09c.14-1.29.58-2.38,1.31-3.25.73-.87,1.66-1.54,2.78-2.01,1.12-.47,2.3-.7,3.52-.7,1.68,0,3.07.3,4.18.92,1.11.61,1.95,1.46,2.5,2.55.55,1.09.83,2.38.83,3.86v11.21h-2.69l-.18-3.2c-.24.5-.54.98-.92,1.42-.37.44-.8.83-1.29,1.15-.49.32-1.06.58-1.71.77s-1.38.29-2.19.29ZM289.05,444.47c.84,0,1.6-.17,2.28-.52.68-.35,1.26-.83,1.74-1.44.48-.61.84-1.29,1.1-2.03s.38-1.52.38-2.33v-.11h-4.53c-1.17,0-2.12.14-2.84.41s-1.23.66-1.54,1.15c-.31.49-.47,1.05-.47,1.67s.15,1.21.45,1.69c.3.48.74.85,1.33,1.11.59.26,1.29.4,2.1.4Z"/>
    <path class="cls-2" d="M302.23,446.59v-25.86h3.02v25.86h-3.02ZM313.37,446.59l-8.62-9.91,7.87-8.19h3.7l-9.02,9.27.04-2.16,9.88,10.99h-3.84Z"/>
    <path class="cls-2" d="M335.96,446.59v-22.67h-7.51v-2.48h18.03v2.48h-7.51v22.67h-3.02Z"/>
    <path class="cls-2" d="M347.99,446.59v-18.1h2.73l.22,3.45c.41-.81.93-1.51,1.56-2.08.63-.58,1.4-1.02,2.3-1.33s1.92-.47,3.07-.47v3.16h-1.11c-.77,0-1.5.1-2.19.31-.69.2-1.31.53-1.85.99-.54.46-.96,1.07-1.26,1.85s-.45,1.74-.45,2.89v9.34h-3.02Z"/>
    <path class="cls-2" d="M367.86,447.02c-1.39,0-2.6-.28-3.65-.83-1.04-.55-1.84-1.4-2.41-2.55-.56-1.15-.84-2.59-.84-4.31v-10.85h3.02v10.52c0,1.8.4,3.15,1.19,4.06.79.91,1.9,1.37,3.34,1.37,1.01,0,1.92-.25,2.73-.74.81-.49,1.45-1.2,1.92-2.12.47-.92.7-2.07.7-3.43v-9.66h3.02v18.1h-2.73l-.18-3.16c-.55,1.13-1.36,2.01-2.44,2.64-1.08.63-2.3.95-3.66.95Z"/>
    <path class="cls-2" d="M388.69,447.02c-1.48,0-2.79-.25-3.92-.75-1.13-.5-2.02-1.2-2.68-2.1-.66-.9-1.06-1.96-1.2-3.18h3.09c.12.62.37,1.2.75,1.72.38.53.9.95,1.56,1.27s1.47.49,2.42.49c.84,0,1.53-.13,2.08-.38.55-.25.96-.59,1.24-1.02.28-.43.41-.9.41-1.4,0-.74-.17-1.3-.52-1.69-.35-.38-.86-.69-1.53-.92-.67-.23-1.49-.42-2.44-.59-.79-.14-1.57-.33-2.33-.57-.77-.24-1.45-.56-2.05-.95s-1.07-.88-1.42-1.46c-.35-.57-.52-1.28-.52-2.12,0-1.03.27-1.95.81-2.75.54-.8,1.3-1.43,2.28-1.89.98-.45,2.13-.68,3.45-.68,1.94,0,3.51.47,4.71,1.4,1.2.93,1.9,2.29,2.12,4.06h-2.98c-.12-.91-.51-1.62-1.17-2.14-.66-.51-1.56-.77-2.71-.77s-1.98.23-2.57.68c-.59.46-.88,1.05-.88,1.8,0,.48.16.9.49,1.28s.81.69,1.46.95,1.42.48,2.33.65c1.2.21,2.29.5,3.27.86.98.36,1.78.89,2.39,1.6.61.71.92,1.71.92,3,0,1.13-.28,2.11-.84,2.95-.56.84-1.36,1.49-2.39,1.96s-2.24.7-3.63.7Z"/>
    <path class="cls-2" d="M406.22,446.59c-1.08,0-2.01-.17-2.8-.5-.79-.33-1.4-.9-1.81-1.71-.42-.8-.63-1.89-.63-3.25v-10.09h-3.16v-2.55h3.16l.4-4.38h2.62v4.38h5.24v2.55h-5.24v10.09c0,1.13.23,1.89.68,2.28.45.39,1.26.59,2.41.59h1.94v2.59h-2.8Z"/>
    <path class="cls-2" d="M414.27,446.77c-.6,0-1.1-.2-1.49-.59-.4-.4-.59-.88-.59-1.46s.2-1.06.59-1.45c.39-.4.89-.59,1.49-.59s1.09.2,1.47.59c.38.39.58.88.58,1.45s-.19,1.06-.58,1.46-.87.59-1.47.59Z"/>
    <path class="cls-2" d="M430.04,446.59v-25.14h3.02v22.74h11.71v2.41h-14.73Z"/>
    <path class="cls-2" d="M454.68,447.02c-1.46,0-2.68-.26-3.66-.77-.98-.51-1.71-1.2-2.19-2.05-.48-.85-.72-1.78-.72-2.78,0-1.22.32-2.26.95-3.11.63-.85,1.53-1.5,2.69-1.94s2.53-.67,4.11-.67h4.78c0-1.12-.17-2.07-.52-2.82-.35-.75-.85-1.32-1.51-1.71-.66-.38-1.48-.58-2.46-.58-1.15,0-2.14.29-2.98.86-.84.57-1.35,1.42-1.54,2.55h-3.09c.14-1.29.58-2.38,1.31-3.25.73-.87,1.66-1.54,2.78-2.01s2.3-.7,3.52-.7c1.68,0,3.07.3,4.18.92,1.11.61,1.95,1.46,2.5,2.55.55,1.09.83,2.38.83,3.86v11.21h-2.69l-.18-3.2c-.24.5-.54.98-.92,1.42-.37.44-.8.83-1.29,1.15-.49.32-1.06.58-1.71.77s-1.38.29-2.19.29ZM455.14,444.47c.84,0,1.6-.17,2.28-.52.68-.35,1.26-.83,1.74-1.44.48-.61.84-1.29,1.1-2.03.25-.74.38-1.52.38-2.33v-.11h-4.53c-1.17,0-2.12.14-2.84.41-.72.28-1.23.66-1.54,1.15-.31.49-.47,1.05-.47,1.67s.15,1.21.45,1.69c.3.48.74.85,1.33,1.11.59.26,1.29.4,2.1.4Z"/>
    <path class="cls-2" d="M474.9,447.02c-1.39,0-2.6-.28-3.65-.83-1.04-.55-1.84-1.4-2.41-2.55s-.84-2.59-.84-4.31v-10.85h3.02v10.52c0,1.8.4,3.15,1.19,4.06.79.91,1.9,1.37,3.34,1.37,1.01,0,1.92-.25,2.73-.74.81-.49,1.46-1.2,1.92-2.12s.7-2.07.7-3.43v-9.66h3.02v18.1h-2.73l-.18-3.16c-.55,1.13-1.37,2.01-2.44,2.64-1.08.63-2.3.95-3.66.95Z"/>
    <path class="cls-2" d="M496.05,454.92c-1.63,0-3.07-.21-4.33-.63-1.26-.42-2.23-1.06-2.93-1.92s-1.04-1.93-1.04-3.2c0-.55.11-1.14.34-1.76.23-.62.62-1.23,1.19-1.83.56-.6,1.36-1.14,2.39-1.62l2.08,1.22c-1.27.53-2.1,1.13-2.48,1.81s-.57,1.31-.57,1.89c0,.79.23,1.45.68,1.98.45.53,1.09.92,1.9,1.19.81.26,1.74.39,2.77.39s1.92-.15,2.66-.45c.74-.3,1.32-.71,1.72-1.22.41-.52.61-1.13.61-1.85,0-.84-.31-1.54-.93-2.1-.62-.56-1.81-.89-3.56-.99-1.41-.1-2.6-.23-3.56-.4-.96-.17-1.75-.37-2.37-.59s-1.14-.48-1.56-.77c-.42-.29-.8-.59-1.13-.9v-.83l3.48-3.45,2.62.93-3.59,3.23.47-1.26c.26.19.51.37.75.54s.56.31.97.43c.41.12.98.23,1.71.32s1.69.19,2.89.29c1.65.12,2.98.41,3.97.86.99.46,1.71,1.07,2.16,1.83.44.77.67,1.68.67,2.73s-.28,2.01-.84,2.93-1.43,1.68-2.6,2.28c-1.17.6-2.68.9-4.53.9ZM496.02,440.91c-1.51,0-2.8-.29-3.86-.86-1.07-.58-1.87-1.35-2.42-2.32-.55-.97-.83-2.05-.83-3.25s.28-2.28.84-3.23c.56-.96,1.37-1.73,2.42-2.32s2.33-.88,3.84-.88,2.79.29,3.84.88,1.86,1.36,2.41,2.32c.55.96.83,2.04.83,3.23s-.28,2.28-.83,3.25c-.55.97-1.35,1.74-2.41,2.32-1.05.57-2.33.86-3.84.86ZM496.02,438.43c1.29,0,2.31-.34,3.05-1.01.74-.67,1.11-1.65,1.11-2.95s-.37-2.24-1.11-2.91c-.74-.67-1.76-1.01-3.05-1.01s-2.29.34-3.07,1.01c-.78.67-1.17,1.64-1.17,2.91s.38,2.27,1.15,2.95c.77.67,1.8,1.01,3.09,1.01ZM498.96,431.03l-.9-2.55h7.4v2.26l-6.5.29Z"/>
    <path class="cls-2" d="M508.95,446.59v-25.86h3.02v10.81c.6-1.08,1.44-1.93,2.53-2.55,1.09-.62,2.28-.93,3.57-.93,1.39,0,2.6.28,3.63.84s1.82,1.42,2.37,2.57c.55,1.15.83,2.6.83,4.35v10.78h-2.98v-10.45c0-1.82-.38-3.19-1.15-4.11-.77-.92-1.88-1.38-3.34-1.38-1.03,0-1.96.25-2.78.75s-1.48,1.22-1.96,2.16c-.48.93-.72,2.08-.72,3.45v9.59h-3.02Z"/>
    <path class="cls-2" d="M537.72,446.59l9.27-25.14h3.2l9.23,25.14h-3.2l-7.65-21.37-7.69,21.37h-3.16ZM541.96,440.12l.86-2.44h11.39l.86,2.44h-13.11Z"/>
    <path class="cls-2" d="M565.27,446.59l-5.32-18.1h3.02l4.13,15.27h-.54l4.49-15.27h3.41l4.56,15.23-.58.04,4.1-15.27h3.05l-5.28,18.1h-3.09l-4.74-15.95h.61l-4.74,15.95h-3.09Z"/>
    <path class="cls-2" d="M589.01,446.59v-25.86h3.02v25.86h-3.02ZM600.15,446.59l-8.62-9.91,7.87-8.19h3.7l-9.02,9.27.04-2.16,9.88,10.99h-3.84Z"/>
    <path class="cls-2" d="M610.78,446.59l-5.32-18.1h3.02l4.13,15.27h-.54l4.49-15.27h3.41l4.56,15.23-.58.04,4.1-15.27h3.05l-5.28,18.1h-3.09l-4.74-15.95h.61l-4.74,15.95h-3.09Z"/>
    <path class="cls-2" d="M639.77,447.02c-1.46,0-2.68-.26-3.66-.77-.98-.51-1.71-1.2-2.19-2.05-.48-.85-.72-1.78-.72-2.78,0-1.22.32-2.26.95-3.11.63-.85,1.53-1.5,2.69-1.94s2.53-.67,4.11-.67h4.78c0-1.12-.17-2.07-.52-2.82-.35-.75-.85-1.32-1.51-1.71-.66-.38-1.48-.58-2.46-.58-1.15,0-2.14.29-2.98.86-.84.57-1.35,1.42-1.54,2.55h-3.09c.14-1.29.58-2.38,1.31-3.25.73-.87,1.66-1.54,2.78-2.01s2.3-.7,3.52-.7c1.68,0,3.07.3,4.18.92,1.11.61,1.95,1.46,2.5,2.55.55,1.09.83,2.38.83,3.86v11.21h-2.69l-.18-3.2c-.24.5-.54.98-.92,1.42-.37.44-.8.83-1.29,1.15-.49.32-1.06.58-1.71.77s-1.38.29-2.19.29ZM640.23,444.47c.84,0,1.6-.17,2.28-.52.68-.35,1.26-.83,1.74-1.44.48-.61.84-1.29,1.1-2.03.25-.74.38-1.52.38-2.33v-.11h-4.53c-1.17,0-2.12.14-2.84.41-.72.28-1.23.66-1.54,1.15-.31.49-.47,1.05-.47,1.67s.15,1.21.45,1.69c.3.48.74.85,1.33,1.11.59.26,1.29.4,2.1.4Z"/>
    <path class="cls-2" d="M653.42,446.59v-18.1h2.73l.22,3.45c.41-.81.93-1.51,1.56-2.08.63-.58,1.4-1.02,2.3-1.33.9-.31,1.92-.47,3.07-.47v3.16h-1.11c-.77,0-1.5.1-2.19.31-.7.2-1.31.53-1.85.99-.54.46-.96,1.07-1.26,1.85-.3.78-.45,1.74-.45,2.89v9.34h-3.02Z"/>
    <path class="cls-2" d="M674.04,447.02c-1.75,0-3.29-.41-4.62-1.24s-2.35-1.96-3.07-3.39c-.72-1.44-1.08-3.07-1.08-4.89s.36-3.44,1.08-4.87c.72-1.42,1.74-2.54,3.07-3.36,1.33-.81,2.88-1.22,4.65-1.22,1.46,0,2.75.3,3.86.9s1.98,1.44,2.6,2.51v-10.74h3.02v25.86h-2.73l-.29-2.98c-.38.6-.88,1.16-1.47,1.67-.6.52-1.31.93-2.14,1.26s-1.79.48-2.89.48ZM674.36,444.4c1.2,0,2.25-.29,3.16-.86.91-.58,1.62-1.37,2.14-2.39s.77-2.22.77-3.61-.26-2.56-.77-3.59-1.23-1.83-2.14-2.41c-.91-.57-1.96-.86-3.16-.86s-2.19.29-3.11.86c-.92.58-1.63,1.38-2.14,2.41s-.75,2.23-.75,3.59.25,2.59.75,3.61,1.21,1.81,2.14,2.39c.92.57,1.96.86,3.11.86Z"/>
    <path class="cls-2" d="M688.55,446.59v-25.86h3.02v25.86h-3.02Z"/>
    <path class="cls-2" d="M698.53,454.49l4.42-9.91h-1.04l-7.11-16.09h3.27l5.89,13.83,6.21-13.83h3.12l-11.6,26.01h-3.16Z"/>
    <path class="cls-2" d="M715.06,446.77c-.6,0-1.1-.2-1.49-.59-.4-.4-.59-.88-.59-1.46s.2-1.06.59-1.45c.39-.4.89-.59,1.49-.59s1.09.2,1.47.59c.38.39.58.88.58,1.45s-.19,1.06-.58,1.46-.87.59-1.47.59Z"/>
  </g>
  <g>
    <g>
      <rect x="16.66" y="14.43" width="21.33" height="370.39"/>
      <g class="cls-5">
        <path d="M147.22,28.37c-43.52,1.05-87.05,2.1-130.57,3.16V13.57c43.52.92,87.05,1.83,130.57,2.75v12.06Z"/>
        <path d="M147.46,383.09c-43.52,1.05-87.05,2.1-130.57,3.16v-17.96c43.52.92,87.05,1.83,130.57,2.75v12.06Z"/>
      </g>
    </g>
    <g class="cls-6">
      <path class="cls-3" d="M247.6,327.61c-9.83,10.49-22.29,16.88-34.91,17.04-22.29.49-43.76-22.94-44.58-46.87-.82-37.2,26.71-68.17,64.57-74.07l5.9,29.01c-23.43,3.44-44.08,28.35-37.86,51.95,2.62,9.67,8.19,14.42,15.73,13.93,5.41-.16,11.64-3.11,18.19-8.36l12.95,17.37Z"/>
      <path class="cls-3" d="M288.08,314.34l1.97,32.94-31.14.82-1.8-122.25c1.48-1.15,35.89-1.15,40.64-.82,22.29,1.8,35.4,16.22,35.4,38.84,0,24.09-13.77,36.05-28.68,39.5l32.94,29.83-15.57,16.88-33.76-35.73ZM284.31,284.67c14.42,1.31,22.78-6.39,23.93-20.98.49-9.5-5.57-16.55-16.06-16.55-1.64,0-3.44.16-5.24.49l-2.62,37.04Z"/>
      <path class="cls-3" d="M389.85,224.86l-7.7,121.27-27.86-.82-.66-123.24,36.22,2.79Z"/>
      <path class="cls-3" d="M455.4,334.99l-20.81-58.83-.66,67.03-22.94-1.15-1.97-108.16,34.09-4.1,20.16,65.39.82-75.55,24.09,1.47-5.24,111.44-27.53,2.46Z"/>
      <path class="cls-3" d="M536.52,287.62c.49,19.99,7.21,31.3,15.41,31.3,10,0,16.06-12.62,10.65-24.91l-17.37,1.64-2.13-15.41,38.84-7.05c3.77,4.75,7.7,19.17,7.38,29.5-1.15,26.06-18.68,45.39-40.97,45.39h-1.31c-22.45-.82-42.61-19.34-43.92-55.39-1.31-42.61,14.91-68.99,44.58-71.94,1.8-.16,3.6-.16,5.41-.16,7.54,0,14.91,1.15,20.32,2.62l3.93,32.28c-6.23-.66-14.42-1.97-21.96-1.97-2.29,0-4.59.16-6.72.49-7.54.98-12.62,6.06-12.13,33.6Z"/>
      <path class="cls-3" d="M665.99,225.19l1.97,25.24-27.04.82-4.42,27.7h19.34v21.96h-21.96l-1.64,20.32h31.79l-.82,23.6-30.48.98-27.37-1.47,3.77-119.14h56.87Z"/>
    </g>
    <g class="cls-1">
      <path class="cls-8" d="M129,183.23h-25.14c-13.86,0-25.14-11.28-25.14-25.14v-75.43c0-13.86,11.28-25.14,25.14-25.14h25.14c13.86,0,25.14,11.28,25.14,25.14v12.57h-25.14v-12.57h-25.14v75.43h25.14v-12.57h25.14v12.57c0,13.86-11.28,25.14-25.14,25.14Z"/>
      <path class="cls-8" d="M168.69,158.09v-75.43c0-13.86,11.28-25.14,25.14-25.14h25.14c13.86,0,25.14,11.28,25.14,25.14v75.43c0,13.86-11.28,25.14-25.14,25.14h-25.14c-13.86,0-25.14-11.28-25.14-25.14ZM218.97,82.66h-25.14l-.02,75.43h25.16v-75.43Z"/>
      <path class="cls-8" d="M319.37,57.51h25.14v125.72h-26.36l-30.21-67.14v67.14h-25.14V57.51h26.36l30.21,67.14V57.51Z"/>
      <path class="cls-8" d="M430.72,82.66h-25.14v100.57h-25.14v-100.57h-25.14v-25.14h75.43v25.14Z"/>
      <path class="cls-8" d="M466.64,82.66v25.14h25.14v25.14h-25.14v25.14h37.71v25.14h-62.86V57.51h62.86v25.14h-37.71Z"/>
      <path class="cls-8" d="M564.89,117.64l30.17,65.59h-27.67l-16.33-35.51-16.33,35.51h-27.67l30.17-65.59-27.66-60.13h27.68l13.82,30.04,13.82-30.04h27.68l-27.66,60.13Z"/>
      <path class="cls-8" d="M668.5,82.66h-25.14v100.57h-25.14v-100.57h-25.14v-25.14h75.43v25.14Z"/>
    </g>
    <path d="M132.9,309.32l8.69,8.69-11.78,11.78-8.69-8.69-2.08,2.08c-3.15,3.15-7.33,4.88-11.78,4.88h-13.21c-9.19,0-16.66-7.47-16.66-16.66v-16.66c0-4.77,2.03-9.07,5.26-12.11l-.38-.38c-3.15-3.14-4.88-7.33-4.88-11.78v-9.04c0-9.19,7.47-16.66,16.66-16.66h16.66c9.19,0,16.66,7.47,16.66,16.66v8.33h-16.66v-8.33h-16.66v9.04l27.07,27.07,8.69-8.69,11.78,11.78-8.69,8.69ZM109.34,309.32l-14.58-14.58h-.71v16.66h13.21l2.08-2.08Z"/>
    <g>
      <rect x="714.11" y="13.59" width="21.33" height="370.39" transform="translate(1449.55 397.57) rotate(-180)"/>
      <g class="cls-7">
        <path d="M604.87,27.54c43.52,1.05,87.05,2.1,130.57,3.16V12.73c-43.52.92-87.05,1.83-130.57,2.75,0,4.02,0,8.04,0,12.06Z"/>
        <path d="M604.63,382.26c43.52,1.05,87.05,2.1,130.57,3.16v-17.96c-43.52.92-87.05,1.83-130.57,2.75,0,4.02,0,8.04,0,12.06Z"/>
      </g>
    </g>
  </g>
</svg>